<?xml version="1.0"?>
<svg xmlns="http://www.w3.org/2000/svg" xmlns:xlink="http://www.w3.org/1999/xlink" xmlns:svgjs="http://svgjs.com/svgjs" version="1.1" width="512" height="512" x="0" y="0" viewBox="0 0 459.096 459" style="enable-background:new 0 0 512 512" xml:space="preserve"><g><path xmlns="http://www.w3.org/2000/svg" d="m7 235.074219c-3.867188 0-7-3.132813-7-7 0-26.15625 5.496094-53.871094 15.898438-80.148438 10.566406-26.6875 26.265624-52.035156 45.40625-73.300781 43.28125-48.09375 102.492187-74.578125 166.722656-74.578125 40.199218 0 80.394531 11.371094 116.242187 32.878906 23.503907 14.101563 45.027344 32.535157 62.277344 53.148438l-1.878906-56.988281c-.128907-3.863282 2.902343-7.097657 6.765625-7.226563 3.820312-.148437 7.097656 2.902344 7.226562 6.765625l2.542969 77.089844c1.714844 3.148437.769531 7.140625-2.269531 9.167968-2.234375 1.488282-5.011719 1.523438-7.21875.328126l-77.101563-2.542969c-3.863281-.125-6.890625-3.359375-6.761719-7.222657.125-3.863281 3.394532-6.875 7.222657-6.765624l65.375 2.15625c-33.277344-42.429688-94.78125-86.792969-172.417969-86.792969-128.03125 0-214.035156 110.671875-214.035156 214.03125 0 3.867187-3.132813 7-6.996094 7zm0 0" fill="#ffffff" data-original="#000000" style=""/><path xmlns="http://www.w3.org/2000/svg" d="m230.972656 456.101562c-40.199218 0-80.394531-11.367187-116.242187-32.875-23.503907-14.105468-45.023438-32.539062-62.277344-53.152343l1.878906 56.988281c.128907 3.863281-2.898437 7.097656-6.761719 7.226562-3.878906.113282-7.097656-2.902343-7.226562-6.765624l-2.542969-77.089844c-1.71875-3.144532-.773437-7.140625 2.265625-9.164063 2.234375-1.492187 5.011719-1.527343 7.21875-.332031l77.101563 2.542969c3.863281.125 6.894531 3.363281 6.765625 7.226562-.125 3.863281-3.382813 6.90625-7.226563 6.761719l-65.375-2.152344c33.277344 42.425782 94.785157 86.789063 172.421875 86.789063 128.03125 0 214.03125-110.667969 214.03125-214.027344 0-3.867187 3.132813-7 7-7 3.863282 0 7 3.132813 7 7 0 26.15625-5.5 53.871094-15.902344 80.148437-10.5625 26.6875-26.265624 52.035157-45.402343 73.300782-43.285157 48.089844-102.496094 74.574218-166.726563 74.574218zm0 0" fill="#ffffff" data-original="#000000" style=""/><path xmlns="http://www.w3.org/2000/svg" d="m323.34375 335.054688h-187.683594c-14.886718 0-26.996094-12.109376-26.996094-26.996094v-159.96875c0-14.882813 12.109376-26.992188 26.996094-26.992188h187.683594c14.882812 0 26.992188 12.109375 26.992188 26.992188v159.96875c0 14.886718-12.109376 26.996094-26.992188 26.996094zm-187.683594-199.960938c-7.167968 0-13 5.832031-13 12.996094v159.96875c0 7.167968 5.832032 12.996094 13 12.996094h187.683594c7.164062 0 12.996094-5.828126 12.996094-12.996094v-159.96875c0-7.164063-5.832032-12.996094-12.996094-12.996094zm0 0" fill="#ffffff" data-original="#000000" style=""/><path xmlns="http://www.w3.org/2000/svg" d="m311.359375 274.222656h-62.605469c-3.867187 0-7-3.132812-7-6.996094 0-3.867187 3.132813-7 7-7h62.605469c3.867187 0 7 3.132813 7 7 0 3.863282-3.132813 6.996094-7 6.996094zm0 0" fill="#ffffff" data-original="#000000" style=""/><path xmlns="http://www.w3.org/2000/svg" d="m311.359375 303.03125h-62.605469c-3.867187 0-7-3.132812-7-7 0-3.863281 3.132813-6.996094 7-6.996094h62.605469c3.867187 0 7 3.132813 7 6.996094 0 3.867188-3.132813 7-7 7zm0 0" fill="#ffffff" data-original="#000000" style=""/><path xmlns="http://www.w3.org/2000/svg" d="m311.359375 216.613281h-62.605469c-3.867187 0-7-3.136719-7-7 0-3.867187 3.132813-7 7-7h62.605469c3.867187 0 7 3.132813 7 7 0 3.863281-3.132813 7-7 7zm0 0" fill="#ffffff" data-original="#000000" style=""/><path xmlns="http://www.w3.org/2000/svg" d="m311.359375 245.417969h-62.605469c-3.867187 0-7-3.132813-7-7 0-3.863281 3.132813-6.996094 7-6.996094h62.605469c3.867187 0 7 3.132813 7 6.996094 0 3.867187-3.132813 7-7 7zm0 0" fill="#ffffff" data-original="#000000" style=""/><path xmlns="http://www.w3.org/2000/svg" d="m343.335938 189.566406h-227.671876c-3.867187 0-7-3.136718-7-7 0-3.867187 3.132813-7 7-7h227.671876c3.867187 0 7 3.132813 7 7 0 3.863282-3.132813 7-7 7zm0 0" fill="#ffffff" data-original="#000000" style=""/><path xmlns="http://www.w3.org/2000/svg" d="m192.609375 170.964844c-8.5 0-15.414063-6.914063-15.414063-15.414063s6.914063-15.414062 15.414063-15.414062c8.496094 0 15.410156 6.914062 15.410156 15.414062s-6.914062 15.414063-15.410156 15.414063zm0-16.828125c-.78125 0-1.417969.632812-1.417969 1.414062s.636719 1.414063 1.417969 1.414063 1.414063-.632813 1.414063-1.414063-.632813-1.414062-1.414063-1.414062zm0 0" fill="#ffffff" data-original="#000000" style=""/><path xmlns="http://www.w3.org/2000/svg" d="m154.8125 170.847656c-8.5 0-15.414062-6.917968-15.414062-15.414062 0-8.5 6.914062-15.414063 15.414062-15.414063s15.414062 6.914063 15.414062 15.414063c0 8.496094-6.914062 15.414062-15.414062 15.414062zm0-16.832031c-.78125 0-1.414062.636719-1.414062 1.417969s.632812 1.414062 1.414062 1.414062 1.414062-.632812 1.414062-1.414062-.632812-1.417969-1.414062-1.417969zm0 0" fill="#ffffff" data-original="#000000" style=""/><path xmlns="http://www.w3.org/2000/svg" d="m230.402344 171.082031c-8.496094 0-15.410156-6.914062-15.410156-15.414062 0-8.496094 6.914062-15.410157 15.410156-15.410157 8.5 0 15.414062 6.914063 15.414062 15.410157 0 8.5-6.914062 15.414062-15.414062 15.414062zm0-16.828125c-.78125 0-1.414063.632813-1.414063 1.414063s.632813 1.414062 1.414063 1.414062 1.417968-.632812 1.417968-1.414062-.636718-1.414063-1.417968-1.414063zm0 0" fill="#ffffff" data-original="#000000" style=""/><path xmlns="http://www.w3.org/2000/svg" d="m218.683594 303.03125h-72.285156c-3.867188 0-7-3.132812-7-7v-86.417969c0-3.867187 3.132812-7 7-7h72.285156c3.867187 0 7 3.132813 7 7v86.417969c0 3.867188-3.132813 7-7 7zm-65.285156-13.996094h58.289062v-72.421875h-58.289062zm0 0" fill="#ffffff" data-original="#000000" style=""/></g></svg>
