<svg xmlns="http://www.w3.org/2000/svg" width="91" height="132" viewBox="0 0 91 132"><defs><clipPath id="1xcwd"><path d="M35.04 30.798s11.272 4.178 21.538 10.104c10.27 5.93 19.532 13.606 19.532 13.606l-34.35 60.673s-2.99-4.056-8.603-7.298c-6.622-3.822-14.846.75-14.846.75s.095-9.265-7.129-13.436C5.689 92.026.689 91.47.689 91.47z"/></clipPath><clipPath id="1xcwa"><path d="M.69 91.47l3.984 40.52 37.086-16.81S33.869 88.49.69 91.47z"/></clipPath><clipPath id="1xcwc"><path d="M45.59 12.767s11.274 4.177 21.54 10.104C77.4 28.8 86.662 36.477 86.662 36.477L74.049 58.32l-41.07-23.71z"/></clipPath><clipPath id="1xcwb"><path d="M78.235 3.65c11.34 6.548 15.227 21.05 8.679 32.39l-5.55 9.612c-6.548 11.34-21.05 15.226-32.391 8.679-11.342-6.548-15.227-21.05-8.68-32.39l5.55-9.612C52.391.99 66.893-2.897 78.235 3.651z"/></clipPath></defs><g><g><g><path fill="#ffecba" d="M.69 91.47l3.984 40.52 37.086-16.81S33.869 88.49.69 91.47z"/></g><g clip-path="url(#1xcwa)"><path fill="#393939" d="M2.562 120.512s5.838.652 13.254 7.652c7.415 6.999-9.628 7.257-9.628 7.257s-8.806-3.919-8.906-4.753c-.101-.835 2.11-10.045 2.11-10.045"/></g><g><path fill="#e88f8d" d="M78.235 3.65c11.34 6.548 15.227 21.05 8.679 32.39l-5.55 9.612c-6.548 11.34-21.05 15.226-32.391 8.679-11.342-6.548-15.227-21.05-8.68-32.39l5.55-9.612C52.391.99 66.893-2.897 78.235 3.651z"/></g><g clip-path="url(#1xcwb)"><path fill="#d97475" d="M79.176 3.03l20.972 12.107-13.622 23.592-20.972-12.108z"/></g><g><path fill="#daeaf2" d="M45.59 12.767s11.274 4.177 21.54 10.104C77.4 28.8 86.662 36.477 86.662 36.477L74.049 58.32l-41.07-23.71z"/></g><g clip-path="url(#1xcwc)"><path fill="#bedae8" d="M68.581 21.379L90.427 33.99 77.31 56.709 55.464 44.097z"/></g><g><path fill="#f1c40f" d="M35.04 30.798s11.272 4.178 21.538 10.104c10.27 5.93 19.532 13.606 19.532 13.606l-34.35 60.673s-2.99-4.056-8.603-7.298c-6.622-3.822-14.846.75-14.846.75s.095-9.265-7.129-13.436C5.689 92.026.689 91.47.689 91.47z"/></g><g clip-path="url(#1xcwd)"><path fill="#f39c12" d="M63.032 31.926l23.593 13.622-44.397 76.893-23.594-13.621z"/></g></g></g></svg>