<svg xmlns="http://www.w3.org/2000/svg" width="161" height="128" viewBox="0 0 161 128"><defs><clipPath id="3kwka"><path d="M89.586 58.657c-1.636.306-3.404 1.85-3.929 3.43l-1.875 4.576c-.746 1.489-.586 3.83.354 5.204l3.716 5.43c.94 1.374.746 3.461-.431 4.638l-5.71 5.71c-1.177 1.176-3.264 1.37-4.638.43l-5.362-3.669c-1.374-.94-3.712-1.091-5.195-.335l-4.686 1.952c-1.579.53-3.121 2.304-3.427 3.94l-1.186 6.323c-.306 1.636-1.92 2.975-3.585 2.975H45.56c-1.665 0-3.278-1.339-3.585-2.975l-1.178-6.282c-.307-1.637-1.85-3.404-3.431-3.928l-4.76-1.961c-1.487-.75-3.827-.596-5.2.345l-5.285 3.615c-1.374.94-3.46.746-4.638-.43l-5.71-5.71c-1.177-1.177-1.37-3.264-.43-4.638l3.623-5.295c.94-1.374 1.097-3.715.347-5.201l-1.953-4.746c-.525-1.58-2.293-3.124-3.929-3.43L3.13 57.441c-1.636-.306-2.975-1.92-2.975-3.584v-8.072c0-1.665 1.339-3.278 2.975-3.585L9.43 41.02c1.636-.307 3.404-1.85 3.929-3.43l1.952-4.746c.75-1.486.593-3.827-.347-5.201l-3.623-5.296c-.94-1.375-.747-3.462.43-4.64L17.481 12c1.177-1.178 3.264-1.372 4.638-.432l5.285 3.616c1.374.94 3.714 1.096 5.2.345l4.762-1.962c1.58-.524 3.124-2.291 3.43-3.928l1.18-6.281C42.281 1.72 43.894.383 45.56.383h8.072c1.666 0 3.279 1.338 3.585 2.975l1.186 6.322c.306 1.636 1.848 3.41 3.427 3.94l4.687 1.952c1.483.756 3.821.605 5.195-.335l5.361-3.668c1.374-.94 3.462-.746 4.639.43l5.709 5.709c1.176 1.177 1.37 3.264.43 4.638l-3.715 5.43c-.94 1.374-1.1 3.716-.354 5.204l1.875 4.577c.525 1.58 2.293 3.123 3.929 3.43l6.478 1.214c1.635.307 2.975 1.92 2.975 3.585v8.072c0 1.664-1.34 3.278-2.975 3.584zM62.57 49.822c0-7.228-5.846-13.088-13.058-13.088s-13.057 5.86-13.057 13.088c0 7.228 5.845 13.088 13.057 13.088 7.212 0 13.058-5.86 13.058-13.088zm86.53 50.71c-.56 1.568-.25 3.975.69 5.349l3.49 5.103c.94 1.374.748 3.461-.43 4.638l-5.185 5.185c-1.178 1.177-3.265 1.37-4.638.43l-5.153-3.524c-1.373-.94-3.78-1.251-5.348-.691l-4.212 1.077c-1.646.248-3.583 1.68-4.303 3.18l-1.87 3.9c-.72 1.5-2.624 2.376-4.233 1.946l-7.083-1.898c-1.609-.43-2.82-2.142-2.692-3.801l.34-4.451c.128-1.66-.86-3.833-2.195-4.828 0 0-.312-.233-1.555-1.475-1.325-1.325-1.688-1.82-1.688-1.82-.984-1.342-3.147-2.337-4.807-2.21l-4.531.348c-1.66.127-3.371-1.085-3.802-2.692l-1.898-7.083c-.43-1.608.446-3.513 1.946-4.233l4.201-2.014c1.502-.72 2.939-2.654 3.195-4.3l.76-3.059c.53-1.577.197-3.992-.743-5.366l-2.861-4.18c-.94-1.375-.747-3.462.43-4.64l5.186-5.184c1.177-1.178 3.264-1.372 4.638-.431l3.547 2.426c1.374.94 3.752 1.176 5.284.525l3.98-1.281c1.627-.35 3.549-1.864 4.27-3.365l2.18-4.547c.72-1.502 2.625-2.377 4.233-1.947l7.083 1.898c1.608.43 2.82 2.142 2.692 3.802l-.311 4.074c-.127 1.66.895 3.783 2.273 4.717 0 0 1.205.818 2.847 2.46l1.008 1.008c.949 1.2 3.083 2.08 4.743 1.952l5.906-.453c1.66-.127 3.37 1.085 3.801 2.693l1.898 7.082c.43 1.609-.444 3.514-1.946 4.233l-4.78 2.292c-1.5.72-2.918 2.658-3.147 4.307zM129.745 85.65c-3.304-3.304-8.656-3.309-11.953-.012-3.298 3.297-3.29 8.647.013 11.952 3.306 3.304 8.657 3.31 11.954.014 3.297-3.296 3.29-8.647-.014-11.954z"/></clipPath></defs><g><g><g><path fill="#487fbc" d="M89.586 58.657c-1.636.306-3.404 1.85-3.929 3.43l-1.875 4.576c-.746 1.489-.586 3.83.354 5.204l3.716 5.43c.94 1.374.746 3.461-.431 4.638l-5.71 5.71c-1.177 1.176-3.264 1.37-4.638.43l-5.362-3.669c-1.374-.94-3.712-1.091-5.195-.335l-4.686 1.952c-1.579.53-3.121 2.304-3.427 3.94l-1.186 6.323c-.306 1.636-1.92 2.975-3.585 2.975H45.56c-1.665 0-3.278-1.339-3.585-2.975l-1.178-6.282c-.307-1.637-1.85-3.404-3.431-3.928l-4.76-1.961c-1.487-.75-3.827-.596-5.2.345l-5.285 3.615c-1.374.94-3.46.746-4.638-.43l-5.71-5.71c-1.177-1.177-1.37-3.264-.43-4.638l3.623-5.295c.94-1.374 1.097-3.715.347-5.201l-1.953-4.746c-.525-1.58-2.293-3.124-3.929-3.43L3.13 57.441c-1.636-.306-2.975-1.92-2.975-3.584v-8.072c0-1.665 1.339-3.278 2.975-3.585L9.43 41.02c1.636-.307 3.404-1.85 3.929-3.43l1.952-4.746c.75-1.486.593-3.827-.347-5.201l-3.623-5.296c-.94-1.375-.747-3.462.43-4.64L17.481 12c1.177-1.178 3.264-1.372 4.638-.432l5.285 3.616c1.374.94 3.714 1.096 5.2.345l4.762-1.962c1.58-.524 3.124-2.291 3.43-3.928l1.18-6.281C42.281 1.72 43.894.383 45.56.383h8.072c1.666 0 3.279 1.338 3.585 2.975l1.186 6.322c.306 1.636 1.848 3.41 3.427 3.94l4.687 1.952c1.483.756 3.821.605 5.195-.335l5.361-3.668c1.374-.94 3.462-.746 4.639.43l5.709 5.709c1.176 1.177 1.37 3.264.43 4.638l-3.715 5.43c-.94 1.374-1.1 3.716-.354 5.204l1.875 4.577c.525 1.58 2.293 3.123 3.929 3.43l6.478 1.214c1.635.307 2.975 1.92 2.975 3.585v8.072c0 1.664-1.34 3.278-2.975 3.584zM62.57 49.822c0-7.228-5.846-13.088-13.058-13.088s-13.057 5.86-13.057 13.088c0 7.228 5.845 13.088 13.057 13.088 7.212 0 13.058-5.86 13.058-13.088zm86.53 50.71c-.56 1.568-.25 3.975.69 5.349l3.49 5.103c.94 1.374.748 3.461-.43 4.638l-5.185 5.185c-1.178 1.177-3.265 1.37-4.638.43l-5.153-3.524c-1.373-.94-3.78-1.251-5.348-.691l-4.212 1.077c-1.646.248-3.583 1.68-4.303 3.18l-1.87 3.9c-.72 1.5-2.624 2.376-4.233 1.946l-7.083-1.898c-1.609-.43-2.82-2.142-2.692-3.801l.34-4.451c.128-1.66-.86-3.833-2.195-4.828 0 0-.312-.233-1.555-1.475-1.325-1.325-1.688-1.82-1.688-1.82-.984-1.342-3.147-2.337-4.807-2.21l-4.531.348c-1.66.127-3.371-1.085-3.802-2.692l-1.898-7.083c-.43-1.608.446-3.513 1.946-4.233l4.201-2.014c1.502-.72 2.939-2.654 3.195-4.3l.76-3.059c.53-1.577.197-3.992-.743-5.366l-2.861-4.18c-.94-1.375-.747-3.462.43-4.64l5.186-5.184c1.177-1.178 3.264-1.372 4.638-.431l3.547 2.426c1.374.94 3.752 1.176 5.284.525l3.98-1.281c1.627-.35 3.549-1.864 4.27-3.365l2.18-4.547c.72-1.502 2.625-2.377 4.233-1.947l7.083 1.898c1.608.43 2.82 2.142 2.692 3.802l-.311 4.074c-.127 1.66.895 3.783 2.273 4.717 0 0 1.205.818 2.847 2.46l1.008 1.008c.949 1.2 3.083 2.08 4.743 1.952l5.906-.453c1.66-.127 3.37 1.085 3.801 2.693l1.898 7.082c.43 1.609-.444 3.514-1.946 4.233l-4.78 2.292c-1.5.72-2.918 2.658-3.147 4.307zM129.745 85.65c-3.304-3.304-8.656-3.309-11.953-.012-3.298 3.297-3.29 8.647.013 11.952 3.306 3.304 8.657 3.31 11.954.014 3.297-3.296 3.29-8.647-.014-11.954z"/></g><g clip-path="url(#3kwka)"><path fill="#daeaf2" d="M132.817 100.652c-4.98 4.98-13.063 4.972-18.058-.02-4.99-4.993-5.001-13.075-.019-18.056 4.98-4.98 13.065-4.973 18.057.02 4.99 4.994 5.001 13.077.02 18.056zm-83.304-32.18c-10.274 0-18.602-8.347-18.602-18.645s8.328-18.645 18.602-18.645c10.274 0 18.602 8.347 18.602 18.645s-8.328 18.646-18.602 18.646z"/></g><g clip-path="url(#3kwka)" opacity=".2"><path fill="#00234a" d="M14.132 14.37l70.632 70.627s-37.334 37.331-71.641 0c-34.307-37.332 1.009-70.628 1.009-70.628zm81.731 51.456l55.497 53.476s-26.195 25.18-52.47 1.008c-25.225-23.206-3.027-54.484-3.027-54.484z"/></g></g></g></svg>