<svg xmlns="http://www.w3.org/2000/svg" width="118" height="37" viewBox="0 0 118 37"><g><g><path fill="#fff" d="M16.827 36.83C6.7 37.17-.103 31.19-.103 20.742-.103 8.518 8.298.089 20.782.226c6.076.067 10.282 2.07 12.15 3.338l-3.382 7.7c-1.515-.732-4.362-1.247-6.765-1.247-6.164 0-9.174 4-9.346 9.169-.178 5.34 3.123 8.877 8.011 9.346 4.83.463 8.283-.648 10.396-1.577l1.887-13.325h10.34l-1.837 12.946c-.17 1.154.556 2.094 1.624 2.094 1.025 0 2.008-.94 2.179-2.094l1.837-12.946h10.34l-2.008 14.399c-.244 1.753.365 2.867 4.135 1.34a15.363 15.363 0 0 1-.204-2.537c0-7.818 4.998-13.757 11.237-13.757 2.478 0 4.144 1.068 5.383 2.777l1.538-11.151h10.34L85.348 28.2c-.208 1.629.516 2.857 4.542.748a15.597 15.597 0 0 1-.141-2.116c0-7.647 4.999-13.757 11.237-13.757 2.478 0 4.145 1.068 5.384 2.777l.3-2.222h10.34l-2.052 14.57c-.213 1.666.812 1.965 2.393 1.58l-.365 4.425c-2.203 1.736-4.378 2.625-6.514 2.625-3.162 0-5.17-1.452-5.854-3.546-1.794 2.137-4.059 3.546-7.306 3.546-2.467 0-4.4-1.18-5.694-3.085-1.827 1.043-5.862 3.15-10.755 3.085-3.162-.042-5.17-1.452-5.855-3.546-1.794 2.094-3.973 3.546-7.306 3.546-2.424 0-4.333-1.14-5.627-2.988-5.123 2.373-8.265 2.988-10.352 2.988-3.247 0-5.17-1.325-5.897-3.247-2.35 2.18-4.828 3.247-7.648 3.247-3.21 0-5.519-1.674-6.363-4.247-4.841 2.567-9.259 4.055-14.987 4.247zm59.548-12.518c0-1.795-.983-3.205-2.521-3.205-2.008 0-3.59 2.051-3.59 4.401 0 1.794.94 3.204 2.522 3.204 1.965 0 3.589-2.05 3.589-4.4zm29.61 0c0-1.795-.983-3.205-2.522-3.205-2.008 0-3.589 2.051-3.589 4.401 0 1.794.94 3.204 2.521 3.204 1.966 0 3.59-2.05 3.59-4.4z"/></g></g></svg>