<svg xmlns="http://www.w3.org/2000/svg" width="96" height="135" viewBox="0 0 96 135"><defs><clipPath id="4m3aa"><path d="M92.164 4.816c-.605-1.828-1.02-3.463-.921-3.633.098-.168.132-.3.077-.291-.055.008-.497-.042-.554-.188-.057-.146-.186-.122-.288.053-.102.176-1.721.669-3.6 1.095 0 0-35.427 8.033-51.27 37.044-17.623 32.273-16.294 54.26-16.294 54.26-.039 1.926 1.294 4.288 2.962 5.252l5.833 3.367a11606.828 11606.828 0 0 1 6.822 3.938l6.194 3.576c1.668.963 4.4.968 6.071.011 0 0 18.727-10.456 37.867-41.854 17.237-28.278 7.101-62.63 7.101-62.63z"/></clipPath></defs><g><g><g><path fill="#3a6da5" d="M48.38 109.175s1.62 1.228 1.704 3.606c.083 2.378-.564 17.733-.564 17.733s14.56-17.152 18.774-22.483c3.473-4.393 4.083-12.671-2.151-18.018-6.234-5.347-17.764 19.162-17.764 19.162z"/></g><g><path fill="#487fbc" d="M18.97 92.197s-1.875-.79-3.976.326c-2.101 1.117-15.076 9.355-15.076 9.355S7.493 80.693 10.003 74.38c2.068-5.205 8.933-9.873 16.68-7.147 7.748 2.725-7.714 24.964-7.714 24.964z"/></g><g><path fill="#d97475" d="M26.155 97.219l13.981 8.072a3.531 3.531 0 1 1-3.531 6.116l-13.982-8.072a3.531 3.531 0 1 1 3.532-6.116z"/></g><g><path fill="#f1c40f" d="M29.916 109.875a8.072 8.072 0 0 1 2.954 11.027c-2.229 3.86-17.23 13.639-17.23 13.639s1.02-17.85 3.249-21.71a8.073 8.073 0 0 1 11.027-2.956z"/></g><g><path fill="#daeaf2" d="M92.164 4.816c-.605-1.828-1.02-3.463-.921-3.633.098-.168.132-.3.077-.291-.055.008-.497-.042-.554-.188-.057-.146-.186-.122-.288.053-.102.176-1.721.669-3.6 1.095 0 0-35.427 8.033-51.27 37.044-17.623 32.273-16.294 54.26-16.294 54.26-.039 1.926 1.294 4.288 2.962 5.252l5.833 3.367a11606.828 11606.828 0 0 1 6.822 3.938l6.194 3.576c1.668.963 4.4.968 6.071.011 0 0 18.727-10.456 37.867-41.854 17.237-28.278 7.101-62.63 7.101-62.63z"/></g><g clip-path="url(#4m3aa)"><path fill="#bedae8" d="M92.106.148l25.342 14.63-61.551 106.601-25.342-14.63z"/></g><g clip-path="url(#4m3aa)"><path fill="#d84848" d="M93.631-2.494l15.74 9.062-13.117 22.719s-6.867-6.107-14.748-10.78z"/></g><g clip-path="url(#4m3aa)"><path fill="#f57b71" d="M81.506 18.506c-.234-.139-.466-.281-.702-.417-7.992-4.614-16.882-7.468-16.882-7.468l13.095-22.68L93.63-2.494z"/></g><g><path fill="#fff" d="M71.471 34.878c7.946 4.587 10.669 14.747 6.081 22.693-4.588 7.946-14.748 10.668-22.695 6.08-7.946-4.587-10.668-14.748-6.08-22.693 4.587-7.946 14.748-10.668 22.694-6.08z"/></g><g><path fill="#5ad2eb" d="M69.47 38.342c6.033 3.483 8.1 11.196 4.617 17.229-3.483 6.032-11.197 8.098-17.23 4.616-6.032-3.483-8.099-11.196-4.616-17.229 3.483-6.032 11.197-8.099 17.23-4.616z"/></g></g></g></svg>